HIERARCHY
ROOT Hips
{
  OFFSET 0.817752 99.0319 2.10555
  CHANNELS 6 Xposition Yposition Zposition Zrotation Xrotation Yrotation
  JOINT Spine
  {
    OFFSET 0 10.1816 0.1315
    CHANNELS 6 Xposition Yposition Zposition Zrotation Xrotation Yrotation
    JOINT Spine1
    {
      OFFSET 0 10.0835 -1.0008
      CHANNELS 6 Xposition Yposition Zposition Zrotation Xrotation Yrotation
      JOINT Spine2
      {
        OFFSET 0 9.1 -1.3734
        CHANNELS 6 Xposition Yposition Zposition Zrotation Xrotation Yrotation
        JOINT Neck
        {
          OFFSET 0 16.6717 -2.5162
          CHANNELS 6 Xposition Yposition Zposition Zrotation Xrotation Yrotation
          JOINT Head
          {
            OFFSET 0 9.6179 1.685
            CHANNELS 6 Xposition Yposition Zposition Zrotation Xrotation Yrotation
            JOINT HeadTop_End
            {
              OFFSET 0 17.8152 2.585
              CHANNELS 6 Xposition Yposition Zposition Zrotation Xrotation Yrotation
              End Site
              {
                OFFSET 0 0 0
              }
            }
            JOINT LeftEye
            {
              OFFSET 3.0676 6.4095 9.2836
              CHANNELS 6 Xposition Yposition Zposition Zrotation Xrotation Yrotation
              End Site
              {
                OFFSET 0 0 0
              }
            }
            JOINT RightEye
            {
              OFFSET -3.0676 6.4095 9.2835
              CHANNELS 6 Xposition Yposition Zposition Zrotation Xrotation Yrotation
              End Site
              {
                OFFSET 0 0 0
              }
            }
          }
        }
        JOINT LeftShoulder
        {
          OFFSET 4.5704 10.946 -2.628
          CHANNELS 6 Xposition Yposition Zposition Zrotation Xrotation Yrotation
          JOINT LeftArm
          {
            OFFSET 10.5924 -0.5246 -2.2321
            CHANNELS 6 Xposition Yposition Zposition Zrotation Xrotation Yrotation
            JOINT LeftForeArm
            {
              OFFSET 27.8415 -0.0001 0
              CHANNELS 6 Xposition Yposition Zposition Zrotation Xrotation Yrotation
              JOINT LeftHand
              {
                OFFSET 28.3288 0 0
                CHANNELS 6 Xposition Yposition Zposition Zrotation Xrotation Yrotation
                JOINT LeftHandThumb1
                {
                  OFFSET 2.4661 -1.575 2.6824
                  CHANNELS 6 Xposition Yposition Zposition Zrotation Xrotation Yrotation
                  JOINT LeftHandThumb2
                  {
                    OFFSET 3.2298 -1.8647 1.8647
                    CHANNELS 6 Xposition Yposition Zposition Zrotation Xrotation Yrotation
                    JOINT LeftHandThumb3
                    {
                      OFFSET 2.6526 -1.5315 1.5315
                      CHANNELS 6 Xposition Yposition Zposition Zrotation Xrotation Yrotation
                      End Site
                      {
                        OFFSET 1.9546 -1.1285 1.1285
                      }
                    }
                  }
                }
                JOINT LeftHandIndex1
                {
                  OFFSET 9.1093 -0.5171 2.2601
                  CHANNELS 6 Xposition Yposition Zposition Zrotation Xrotation Yrotation
                  JOINT LeftHandIndex2
                  {
                    OFFSET 3.6764 0 0
                    CHANNELS 6 Xposition Yposition Zposition Zrotation Xrotation Yrotation
                    JOINT LeftHandIndex3
                    {
                      OFFSET 2.8831 0 0
                      CHANNELS 6 Xposition Yposition Zposition Zrotation Xrotation Yrotation
                      End Site
                      {
                        OFFSET 2.3927 0 0
                      }
                    }
                  }
                }
                JOINT LeftHandMiddle1
                {
                  OFFSET 9.5334 0 0
                  CHANNELS 6 Xposition Yposition Zposition Zrotation Xrotation Yrotation
                  JOINT LeftHandMiddle2
                  {
                    OFFSET 3.6982 0 0
                    CHANNELS 6 Xposition Yposition Zposition Zrotation Xrotation Yrotation
                    JOINT LeftHandMiddle3
                    {
                      OFFSET 2.9509 0 0
                      CHANNELS 6 Xposition Yposition Zposition Zrotation Xrotation Yrotation
                      End Site
                      {
                        OFFSET 2.8339 0 0
                      }
                    }
                  }
                }
                JOINT LeftHandRing1
                {
                  OFFSET 9.1045 -0.0439 -1.8651
                  CHANNELS 6 Xposition Yposition Zposition Zrotation Xrotation Yrotation
                  JOINT LeftHandRing2
                  {
                    OFFSET 3.154 0 0
                    CHANNELS 6 Xposition Yposition Zposition Zrotation Xrotation Yrotation
                    JOINT LeftHandRing3
                    {
                      OFFSET 2.9377 0 0
                      CHANNELS 6 Xposition Yposition Zposition Zrotation Xrotation Yrotation
                      End Site
                      {
                        OFFSET 2.6475 0 0
                      }
                    }
                  }
                }
                JOINT LeftHandPinky1
                {
                  OFFSET 8.0778 -0.4887 -3.8061
                  CHANNELS 6 Xposition Yposition Zposition Zrotation Xrotation Yrotation
                  JOINT LeftHandPinky2
                  {
                    OFFSET 3.6 0 0
                    CHANNELS 6 Xposition Yposition Zposition Zrotation Xrotation Yrotation
                    JOINT LeftHandPinky3
                    {
                      OFFSET 2.1142 0 0
                      CHANNELS 6 Xposition Yposition Zposition Zrotation Xrotation Yrotation
                      End Site
                      {
                        OFFSET 1.9757 0 0
                      }
                    }
                  }
                }
              }
            }
          }
        }
        JOINT RightShoulder
        {
          OFFSET -4.57 10.9462 -2.628
          CHANNELS 6 Xposition Yposition Zposition Zrotation Xrotation Yrotation
          JOINT RightArm
          {
            OFFSET -10.5928 -0.5248 -2.2321
            CHANNELS 6 Xposition Yposition Zposition Zrotation Xrotation Yrotation
            JOINT RightForeArm
            {
              OFFSET -27.8415 0 0
              CHANNELS 6 Xposition Yposition Zposition Zrotation Xrotation Yrotation
              JOINT RightHand
              {
                OFFSET -28.3288 0 0.0001
                CHANNELS 6 Xposition Yposition Zposition Zrotation Xrotation Yrotation
                JOINT RightHandPinky1
                {
                  OFFSET -8.0767 -0.4885 -3.806
                  CHANNELS 6 Xposition Yposition Zposition Zrotation Xrotation Yrotation
                  JOINT RightHandPinky2
                  {
                    OFFSET -3.6 0 0.0001
                    CHANNELS 6 Xposition Yposition Zposition Zrotation Xrotation Yrotation
                    JOINT RightHandPinky3
                    {
                      OFFSET -2.1142 0 0
                      CHANNELS 6 Xposition Yposition Zposition Zrotation Xrotation Yrotation
                      End Site
                      {
                        OFFSET -1.9757 0 0
                      }
                    }
                  }
                }
                JOINT RightHandRing1
                {
                  OFFSET -9.1036 -0.0439 -1.8651
                  CHANNELS 6 Xposition Yposition Zposition Zrotation Xrotation Yrotation
                  JOINT RightHandRing2
                  {
                    OFFSET -3.154 0 0
                    CHANNELS 6 Xposition Yposition Zposition Zrotation Xrotation Yrotation
                    JOINT RightHandRing3
                    {
                      OFFSET -2.9377 0 0
                      CHANNELS 6 Xposition Yposition Zposition Zrotation Xrotation Yrotation
                      End Site
                      {
                        OFFSET -2.6475 0 0
                      }
                    }
                  }
                }
                JOINT RightHandMiddle1
                {
                  OFFSET -9.5325 0 0
                  CHANNELS 6 Xposition Yposition Zposition Zrotation Xrotation Yrotation
                  JOINT RightHandMiddle2
                  {
                    OFFSET -3.6982 0 0
                    CHANNELS 6 Xposition Yposition Zposition Zrotation Xrotation Yrotation
                    JOINT RightHandMiddle3
                    {
                      OFFSET -2.9509 0 0
                      CHANNELS 6 Xposition Yposition Zposition Zrotation Xrotation Yrotation
                      End Site
                      {
                        OFFSET -2.8339 0 0.0001
                      }
                    }
                  }
                }
                JOINT RightHandIndex1
                {
                  OFFSET -9.1083 -0.5168 2.2601
                  CHANNELS 6 Xposition Yposition Zposition Zrotation Xrotation Yrotation
                  JOINT RightHandIndex2
                  {
                    OFFSET -3.6764 0 0
                    CHANNELS 6 Xposition Yposition Zposition Zrotation Xrotation Yrotation
                    JOINT RightHandIndex3
                    {
                      OFFSET -2.8831 0 0
                      CHANNELS 6 Xposition Yposition Zposition Zrotation Xrotation Yrotation
                      End Site
                      {
                        OFFSET -2.3927 0 0
                      }
                    }
                  }
                }
                JOINT RightHandThumb1
                {
                  OFFSET -2.4648 -1.5727 2.6826
                  CHANNELS 6 Xposition Yposition Zposition Zrotation Xrotation Yrotation
                  JOINT RightHandThumb2
                  {
                    OFFSET -3.2298 -1.8647 1.8647
                    CHANNELS 6 Xposition Yposition Zposition Zrotation Xrotation Yrotation
                    JOINT RightHandThumb3
                    {
                      OFFSET -2.6526 -1.5314 1.5314
                      CHANNELS 6 Xposition Yposition Zposition Zrotation Xrotation Yrotation
                      End Site
                      {
                        OFFSET -1.9546 -1.1285 1.1285
                      }
                    }
                  }
                }
              }
            }
          }
        }
      }
    }
  }
  JOINT LeftUpLeg
  {
    OFFSET 8.2078 -6.7517 -1.5996
    CHANNELS 6 Xposition Yposition Zposition Zrotation Xrotation Yrotation
    JOINT LeftLeg
    {
      OFFSET 0 -44.3705 0.2846
      CHANNELS 6 Xposition Yposition Zposition Zrotation Xrotation Yrotation
      JOINT LeftFoot
      {
        OFFSET 0 -44.4279 -2.9822
        CHANNELS 6 Xposition Yposition Zposition Zrotation Xrotation Yrotation
        JOINT LeftToeBase
        {
          OFFSET 0 -8.7287 10.7106
          CHANNELS 6 Xposition Yposition Zposition Zrotation Xrotation Yrotation
          End Site
          {
            OFFSET 0 -0.0007 9.2781
          }
        }
      }
    }
  }
  JOINT RightUpLeg
  {
    OFFSET -8.2078 -6.7517 -1.5996
    CHANNELS 6 Xposition Yposition Zposition Zrotation Xrotation Yrotation
    JOINT RightLeg
    {
      OFFSET 0 -44.3705 0.2862
      CHANNELS 6 Xposition Yposition Zposition Zrotation Xrotation Yrotation
      JOINT RightFoot
      {
        OFFSET 0 -44.4277 -2.9838
        CHANNELS 6 Xposition Yposition Zposition Zrotation Xrotation Yrotation
        JOINT RightToeBase
        {
          OFFSET 0 -8.7287 10.7106
          CHANNELS 6 Xposition Yposition Zposition Zrotation Xrotation Yrotation
          End Site
          {
            OFFSET 0 -0.0007 9.2781
          }
        }
      }
    }
  }
}
MOTION
Frames:	4
Frame Time:	0.0333333
66.8891 93.9209 6.68646 -0.89943 -7.52484 -22.4438 1.42109e-014 10.1816 0.1315 6.68792 24.648 -10.5622 0 10.0835 -1.0008 0.37883 2.05832 -1.68819 0 9.1 -1.3734 0.455168 2.04752 -1.68252 0 16.6717 -2.5162 -4.4184 5.45864 1.79095 0 9.6179 1.685 -9.38536 -29.0899 20.7047 -7.10543e-015 17.8152 2.585 2.03754e-015 -7.95139e-016 7.95139e-016 3.0676 6.4095 9.2836 2.03754e-015 -7.95139e-016 7.95139e-016 -3.0676 6.4095 9.2835 2.03754e-015 -7.95139e-016 7.95139e-016 4.5704 10.946 -2.628 -28.1147 8.76478 -21.354 10.5924 -0.5246 -2.2321 -42.544 6.33269 -32.1495 27.8415 -0.0001 0 -0.000191969 -6.65199e-006 -74.3283 28.3288 0 -1.42109e-014 -31.6055 -2.66196 -21.5007 2.4661 -1.575 2.6824 3.20649 -8.36806 -8.37982 3.2298 -1.8647 1.8647 10.2914 5.74708 35.6716 2.6526 -1.5315 1.5315 13.0515 -5.82162 3.61382 9.1093 -0.5171 2.2601 -21.1228 -1.15165 -1.84892 3.6764 0 -1.42109e-014 -53.1865 -2.34636 4.68495 2.8831 -3.55271e-015 0 -53.1308 -2.34179 4.68155 9.5334 0 0 -23.5467 -1.36453 7.79906 3.6982 0 0 -61.8565 -3.09373 5.16122 2.9509 7.10543e-015 0 -61.8281 -3.09117 5.15986 9.1045 -0.0439 -1.8651 -36.7915 -2.5163 9.74422 3.154 3.55271e-015 -1.42109e-014 -55.8854 -2.57116 4.84525 2.9377 0 0 -55.9272 -2.5747 4.84765 8.0778 -0.4887 -3.8061 -40.7392 -2.87448 12.4823 3.6 5.32907e-015 0 -65.9073 -3.46567 5.3439 2.1142 0 0 -65.8063 -3.45626 5.33967 -4.57 10.9462 -2.628 11.209 3.94782 17.571 -10.5928 -0.5248 -2.2321 45.8585 16.01 33.2078 -27.8415 0 3.55271e-015 4.56506e-005 2.76779e-006 95.2038 -28.3288 0 0.0001 -27.4465 11.3793 32.7448 -8.0767 -0.4885 -3.806 38.4614 -2.36111 -11.4557 -3.6 7.10543e-015 0.0001 61.8816 -2.45488 -4.09565 -2.1142 0 1.42109e-014 61.8816 -2.45627 -4.09642 -9.1036 -0.0439 -1.8651 29.527 -1.68824 -4.62801 -3.154 -7.10543e-015 2.84217e-014 69.3095 -3.00463 -4.34549 -2.9377 0 -1.42109e-014 69.4786 -3.01745 -4.35032 -9.5325 -7.10543e-015 1.42109e-014 32.3362 -1.89581 -7.71895 -3.6982 0 0 62.0028 -2.46496 -4.10105 -2.9509 -1.42109e-014 0 61.9552 -2.46155 -4.10125 -9.1083 -0.5168 2.2601 17.5527 -0.840921 1.44925 -3.6764 -2.66454e-015 0 52.1734 -1.79635 -3.66802 -2.8831 1.42109e-014 0 52.1734 -1.79634 -3.668 -2.4648 -1.5727 2.6826 -10.0921 -2.4789 -3.42722 -3.2298 -1.8647 1.8647 -3.03629 8.93241 -20.2416 -2.6526 -1.5314 1.5314 -14.7834 6.16421 -19.4902 8.2078 -6.7517 -1.5996 3.43898 0.567779 6.70153 -1.42109e-014 -44.3705 0.2846 8.44822 45.0857 -14.5469 2.84217e-014 -44.4279 -2.9822 -3.7687 -25.2679 -4.52252 0 -8.7287 10.7106 -2.12519e-006 -15.3581 -4.98948e-006 -8.2078 -6.7517 -1.5996 -18.9129 -25.9849 0.784676 3.55271e-015 -44.3705 0.2862 -16.1871 52.5026 4.36458 -3.55271e-015 -44.4277 -2.9838 0.934027 14.0563 -3.88354 0 -8.7287 10.7106 7.94911 -14.1881 1.29689 
69.6369 93.9429 6.37243 -0.767004 -9.30447 -17.1778 1.42109e-014 10.1816 0.1315 6.38083 25.5248 -9.6666 0 10.0835 -1.0008 -0.0196233 1.96525 -1.53837 -1.42109e-014 9.1 -1.3734 0.0566644 1.94934 -1.54369 0 16.6717 -2.5162 -3.84589 6.30904 1.51977 -1.42109e-014 9.6179 1.685 -9.7847 -27.4096 16.5595 7.10543e-015 17.8152 2.585 -4.96962e-017 1.19271e-015 -1.59028e-015 3.0676 6.4095 9.2836 -4.96962e-017 1.19271e-015 -1.59028e-015 -3.0676 6.4095 9.2835 -4.96962e-017 1.19271e-015 -1.59028e-015 4.5704 10.946 -2.628 -30.0354 7.78002 -17.5978 10.5924 -0.5246 -2.2321 -47.0305 10.7242 -29.5259 27.8415 -0.0001 -1.42109e-014 -0.000184196 9.94791e-007 -70.3795 28.3288 0 0 -27.2929 2.9975 -19.8201 2.4661 -1.575 2.6824 2.22923 -7.39557 -6.38419 3.2298 -1.8647 1.8647 10.4794 5.06165 34.612 2.6526 -1.5315 1.5315 13.0091 -5.49275 4.11349 9.1093 -0.5171 2.2601 -22.0639 -1.22361 -1.79021 3.6764 3.55271e-015 1.42109e-014 -54.5661 -2.4603 4.76822 2.8831 -3.55271e-015 -1.42109e-014 -54.5064 -2.45535 4.76466 9.5334 7.10543e-015 -1.42109e-014 -23.9828 -1.39986 7.60259 3.6982 3.55271e-015 -1.42109e-014 -63.3598 -3.23025 5.23209 2.9509 7.10543e-015 -1.42109e-014 -63.3307 -3.2276 5.23075 9.1045 -0.0439 -1.8651 -35.7632 -2.41767 9.90385 3.154 3.55271e-015 1.42109e-014 -55.604 -2.54737 4.82904 2.9377 0 -1.42109e-014 -55.6488 -2.55114 4.83163 8.0778 -0.4887 -3.8061 -40.9703 -2.89768 12.4639 3.6 3.55271e-015 0 -64.5619 -3.34073 5.28616 2.1142 7.10543e-015 0 -64.4565 -3.331 5.2815 -4.57 10.9462 -2.628 10.5401 3.93653 18.1497 -10.5928 -0.5248 -2.2321 53.0866 16.4848 30.2152 -27.8415 0 0 1.52921e-005 -1.07644e-005 90.3546 -28.3288 0 0.0001 -29.2089 13.4443 33.6205 -8.0767 -0.4885 -3.806 39.2368 -2.42966 -10.9925 -3.6 -7.10543e-015 0.0001 62.4462 -2.49535 -4.11708 -2.1142 0 0 62.4462 -2.49678 -4.11782 -9.1036 -0.0439 -1.8651 30.2288 -1.74141 -4.05661 -3.154 7.10543e-015 1.42109e-014 69.2402 -2.99938 -4.34347 -2.9377 1.42109e-014 0 69.4267 -3.01352 -4.34884 -9.5325 0 0 34.8009 -2.08966 -7.68108 -3.6982 1.42109e-014 1.42109e-014 63.2375 -2.55392 -4.14713 -2.9509 0 0 63.1901 -2.55046 -4.14745 -9.1083 -0.5168 2.2601 19.5431 -0.973093 0.54092 -3.6764 -3.33067e-015 0 52.6762 -1.82867 -3.69291 -2.8831 0 -1.42109e-014 52.6762 -1.82866 -3.69288 -2.4648 -1.5727 2.6826 -9.53613 -2.06545 -3.88349 -3.2298 -1.8647 1.8647 -3.04357 9.60051 -21.3511 -2.6526 -1.5314 1.5314 -14.7672 6.5963 -20.0115 8.2078 -6.7517 -1.5996 1.08573 0.672329 4.03547 0 -44.3705 0.2846 10.6964 45.5013 -16.1397 0 -44.4279 -2.9822 -2.94845 -27.2121 -4.63863 1.42109e-014 -8.7287 10.7106 1.20261e-006 -14.3182 3.2462e-006 -8.2078 -6.7517 -1.5996 -14.8315 -26.8804 6.42863 7.10543e-015 -44.3705 0.2862 -19.4338 59.3275 8.16954 0 -44.4277 -2.9838 -0.889257 12.7448 -5.88356 3.55271e-015 -8.7287 10.7106 2.58924 -6.19547 0.208799 
71.0893 95.2449 6.4195 0.0156406 -9.8524 -10.6223 0 10.1816 0.1315 5.33814 25.1603 -8.42884 1.42109e-014 10.0835 -1.0008 -0.0968513 1.91937 -1.36673 -1.42109e-014 9.1 -1.3734 -0.0292759 1.90578 -1.37373 1.42109e-014 16.6717 -2.5162 -3.83188 6.64749 1.34466 0 9.6179 1.685 -10.734 -25.711 11.2315 0 17.8152 2.585 1.2424e-015 0 -0 3.0676 6.4095 9.2836 1.2424e-015 0 -0 -3.0676 6.4095 9.2835 1.2424e-015 0 -0 4.5704 10.946 -2.628 -30.8403 6.43834 -13.6789 10.5924 -0.5246 -2.2321 -50.0307 14.3195 -24.0486 27.8415 -0.0001 0 -0.000230966 -5.14037e-006 -65.4394 28.3288 0 -1.42109e-014 -25.3113 8.12664 -19.6271 2.4661 -1.575 2.6824 0.617968 -5.53642 -2.67375 3.2298 -1.8647 1.8647 10.5382 4.85066 34.5499 2.6526 -1.5315 1.5315 12.9725 -5.22075 4.5251 9.1093 -0.5171 2.2601 -23.5314 -1.34022 -1.49374 3.6764 0 0 -55.1875 -2.51229 4.80481 2.8831 0 1.42109e-014 -55.1253 -2.50708 4.80117 9.5334 0 1.42109e-014 -24.1558 -1.41402 7.54954 3.6982 0 -1.42109e-014 -63.8471 -3.27491 5.25427 2.9509 7.10543e-015 0 -63.8169 -3.27212 5.25292 9.1045 -0.0439 -1.8651 -35.6468 -2.4033 10.324 3.154 0 0 -54.5733 -2.46091 4.76866 2.9377 1.42109e-014 1.42109e-014 -54.623 -2.46505 4.7716 8.0778 -0.4887 -3.8061 -41.6651 -2.96626 12.5394 3.6 0 0 -60.998 -3.01662 5.11919 2.1142 0 1.42109e-014 -60.8871 -3.0067 5.11365 -4.57 10.9462 -2.628 10.3595 3.86029 17.906 -10.5928 -0.5248 -2.2321 57.9872 16.317 26.4769 -27.8415 0 0 2.97189e-005 2.01195e-008 83.6657 -28.3288 -1.42109e-014 0.0001 -28.418 14.3379 32.6194 -8.0767 -0.4885 -3.806 39.7182 -2.47414 -10.4452 -3.6 -7.10543e-015 0.0001 62.3664 -2.48963 -4.11408 -2.1142 0 1.42109e-014 62.3664 -2.49104 -4.11481 -9.1036 -0.0439 -1.8651 30.6937 -1.77601 -3.47359 -3.154 0 0 68.9471 -2.97716 -4.33499 -2.9377 0 0 69.1523 -2.9927 -4.34096 -9.5325 -3.55271e-015 0 36.5614 -2.23077 -7.81586 -3.6982 1.06581e-014 0 63.9404 -2.60498 -4.17255 -2.9509 0 0 63.8917 -2.60142 -4.17282 -9.1083 -0.5168 2.2601 20.9227 -1.06725 -0.0778926 -3.6764 4.44089e-015 0 52.6306 -1.82574 -3.69063 -2.8831 1.42109e-014 -1.42109e-014 52.6306 -1.82572 -3.69065 -2.4648 -1.5727 2.6826 -8.77026 -1.84898 -4.17057 -3.2298 -1.8647 1.8647 -3.04353 9.95935 -21.945 -2.6526 -1.5314 1.5314 -14.7516 6.96703 -20.4579 8.2078 -6.7517 -1.5996 -0.100221 1.34108 1.97526 0 -44.3705 0.2846 12.6045 42.0878 -17.1213 -1.42109e-014 -44.4279 -2.9822 -3.45686 -25.4693 -7.67069 0 -8.7287 10.7106 3.88709e-007 -13.2496 9.24717e-006 -8.2078 -6.7517 -1.5996 -8.82362 -26.5887 9.53325 7.10543e-015 -44.3705 0.2862 -22.5429 63.7303 11.1238 -1.06581e-014 -44.4277 -2.9838 0.585391 8.15736 -6.86012 0 -8.7287 10.7106 -5.70248e-006 -0.652042 -5.77904e-006 
71.7101 97.6893 6.67228 1.07663 -9.08705 -2.12275 0 10.1816 0.1315 3.94523 24.2001 -7.856 1.42109e-014 10.0835 -1.0008 0.0364535 1.82252 -1.32116 -1.42109e-014 9.1 -1.3734 0.099225 1.8151 -1.3214 0 16.6717 -2.5162 -3.8413 6.60765 1.16434 -1.42109e-014 9.6179 1.685 -10.7932 -24.4593 5.32018 -7.10543e-015 17.8152 2.585 -1.69588e-015 0 -0 3.0676 6.4095 9.2836 -1.69588e-015 0 -0 -3.0676 6.4095 9.2835 -1.69588e-015 0 -0 4.5704 10.946 -2.628 -29.5452 5.2537 -11.0658 10.5924 -0.5246 -2.2321 -52.8126 15.0093 -17.9633 27.8415 -0.0001 7.10543e-015 -0.00021087 5.63999e-006 -58.8585 28.3288 -1.42109e-014 7.10543e-015 -23.8168 11.6825 -17.5696 2.4661 -1.575 2.6824 -0.850223 -3.98682 0.366166 3.2298 -1.8647 1.8647 10.798 4.00145 33.3538 2.6526 -1.5315 1.5315 12.9597 -5.12946 4.66332 9.1093 -0.5171 2.2601 -23.6405 -1.34818 -1.52997 3.6764 0 2.84217e-014 -54.945 -2.49196 4.79059 2.8831 2.13163e-014 -1.42109e-014 -54.8769 -2.48627 4.7866 9.5334 0 0 -23.1084 -1.33098 7.48348 3.6982 0 0 -63.9741 -3.28658 5.25999 2.9509 0 1.42109e-014 -63.9427 -3.28369 5.25858 9.1045 -0.0439 -1.8651 -33.8409 -2.23074 10.699 3.154 -3.55271e-015 0 -53.0256 -2.33318 4.67507 2.9377 -1.42109e-014 -7.10543e-015 -53.0812 -2.33773 4.6785 8.0778 -0.4887 -3.8061 -41.4329 -2.94152 12.6623 3.6 7.10543e-015 0 -51.6032 -2.21805 4.58609 2.1142 0 7.10543e-015 -51.4858 -2.20865 4.57859 -4.57 10.9462 -2.628 10.6211 3.60666 16.2662 -10.5928 -0.5248 -2.2321 61.286 14.8245 23.4236 -27.8415 0 -7.10543e-015 -1.31039e-005 -7.42232e-006 74.3288 -28.3288 0 0.0001 -21.8576 15.4843 29.6745 -8.0767 -0.4885 -3.806 39.5428 -2.46269 -10.0477 -3.6 0 0.0001 61.9444 -2.45936 -4.09806 -2.1142 -1.42109e-014 1.42109e-014 61.9444 -2.46077 -4.0988 -9.1036 -0.0439 -1.8651 30.74 -1.77869 -2.91717 -3.154 0 -1.42109e-014 68.5124 -2.94431 -4.32219 -2.9377 0 1.42109e-014 68.7369 -2.96126 -4.32882 -9.5325 -7.10543e-015 1.42109e-014 38.0172 -2.34962 -7.83723 -3.6982 1.42109e-014 1.42109e-014 64.3081 -2.63181 -4.18557 -2.9509 1.42109e-014 -1.42109e-014 64.2591 -2.62824 -4.18585 -9.1083 -0.5168 2.2601 21.9164 -1.13636 -0.588393 -3.6764 -1.06581e-014 0 52.0823 -1.7905 -3.66347 -2.8831 0 1.42109e-014 52.0823 -1.79052 -3.66346 -2.4648 -1.5727 2.6826 -7.85237 -1.57964 -4.52672 -3.2298 -1.8647 1.8647 -3.04135 10.2468 -22.4204 -2.6526 -1.5314 1.5314 -14.7282 7.46662 -21.0584 8.2078 -6.7517 -1.5996 1.00932 1.24644 0.885144 1.42109e-014 -44.3705 0.2846 12.1982 36.5046 -16.3233 0 -44.4279 -2.9822 -3.72127 -19.2507 -14.9732 0 -8.7287 10.7106 8.40342e-007 -12.7444 -2.89135e-006 -8.2078 -6.7517 -1.5996 -2.434 -25.9928 8.78167 0 -44.3705 0.2862 -22.5308 63.7057 10.5407 0 -44.4277 -2.9838 2.9415 6.32915 -8.28911 -7.10543e-015 -8.7287 10.7106 1.04329e-005 -0.323887 -5.89404e-006 
